<svg xmlns="http://www.w3.org/2000/svg" viewBox="0 0 180 180" fill="none" shape-rendering="auto"><metadata xmlns:rdf="http://www.w3.org/1999/02/22-rdf-syntax-ns#" xmlns:xsi="http://www.w3.org/2001/XMLSchema-instance" xmlns:dc="http://purl.org/dc/elements/1.1/" xmlns:dcterms="http://purl.org/dc/terms/"><rdf:RDF><rdf:Description><dc:title>Bottts</dc:title><dc:creator>Pablo Stanley</dc:creator><dc:source xsi:type="dcterms:URI">https://bottts.com/</dc:source><dcterms:license xsi:type="dcterms:URI">https://bottts.com/</dcterms:license><dc:rights>Remix of „Bottts” (https://bottts.com/) by „Pablo Stanley”, licensed under „Free for personal and commercial use” (https://bottts.com/)</dc:rights></rdf:Description></rdf:RDF></metadata><mask id="viewboxMask"><rect width="180" height="180" rx="0" ry="0" x="0" y="0" fill="#fff" /></mask><g mask="url(#viewboxMask)"><g transform="translate(0 66)"><mask id="sidesRound-a" style="mask-type:alpha" maskUnits="userSpaceOnUse" x="12" y="16" width="156" height="45"><path d="M30 61c-9.94 0-18-10.07-18-22.5S20.06 16 30 16s18 10.07 18 22.5S39.94 61 30 61ZM150 61c9.94 0 18-10.07 18-22.5S159.94 16 150 16s-18 10.07-18 22.5S140.06 61 150 61Z" fill="#E1E6E8"/></mask><g mask="url(#sidesRound-a)"><path d="M0 0h180v76H0V0Z" fill="#1e88e5"/><path d="M0 0h180v76H0V0Z" fill="#fff" fill-opacity=".3"/><path fill="#000" fill-opacity=".2" d="M20 0h140v76H20z"/></g></g><g transform="translate(41)"><mask id="topHorns-a" style="mask-type:alpha" maskUnits="userSpaceOnUse" x="8" y="12" width="84" height="40"><path d="M71.21 40c7.64-6.7 13.42-19.31 12.8-26-.14-1.45 2-1.7 3 0 4.42 7.51 2.72 22.07 2.15 26H92v12H66V40h5.21ZM16.52 13.74c0 7.53 4.97 19.7 12.74 26.26H34v12H8V40h3.23c-.6-3.56-2.7-18.4 2.2-25.9.9-1.38 3.1-1.42 3.1-.36Z" fill="#E1E6E8"/></mask><g mask="url(#topHorns-a)"><path d="M0 0h100v52H0V0Z" fill="#1e88e5"/><path d="M0 0h100v52H0V0Z" fill="#fff" fill-opacity=".3"/><path fill="#000" fill-opacity=".4" d="M0 40h100v12H0z"/><path fill-rule="evenodd" clip-rule="evenodd" d="M15.46 13h16.1v27H20.83c-7.45-7.85-5.36-27-5.36-27ZM84.82 13h7.75v27H81.82c5.75-7.8 3-27 3-27Z" fill="#fff" fill-opacity=".4"/></g></g><g transform="translate(25 44)"><mask id="faceSquare02-a" style="mask-type:luminance" maskUnits="userSpaceOnUse" x="0" y="0" width="130" height="120"><path d="M0 12A12 12 0 0 1 12 0h106a12 12 0 0 1 12 12v70a38 38 0 0 1-38 38H38A38 38 0 0 1 0 82V12Z" fill="#fff"/></mask><g mask="url(#faceSquare02-a)"><path d="M-2-2h134v124H-2V-2Z" fill="#1e88e5"/><g transform="translate(-1 -1)"><path d="M15 0h-4v18h4V0ZM23 0h-4v34h53.42a5 5 0 1 0 0-4H23V0Z" fill="#000" fill-opacity=".1"/><path d="M122 34.58a5 5 0 1 0-4 0V64h23v-4h-19V34.58Z" fill="#fff" fill-opacity=".2"/><path d="M114 46h-4v26h31v-4h-27V46ZM27 103.58a5 5 0 1 1 4 0V133H8v-4h19v-25.42Z" fill="#000" fill-opacity=".2"/></g></g></g><g transform="translate(52 124)"><g fill="#000" fill-opacity=".6"><rect x="12" y="12" width="4" height="8" rx="2"/><rect x="36" y="12" width="4" height="8" rx="2"/><rect x="24" y="12" width="4" height="8" rx="2"/><rect x="48" y="12" width="4" height="8" rx="2"/><rect x="60" y="12" width="4" height="8" rx="2"/></g></g><g transform="translate(38 76)"><path d="M0 10a8 8 0 0 1 8-8h88a8 8 0 0 1 8 8v18a8 8 0 0 1-8 8H82.98c-3.27.17-5.48 1.14-6.98 2.35l-1.48 1.24c-2.47 2.12-5.15 4.4-8.24 4.4H38.67c-3.14 0-5.94-2.12-8.62-4.16-.95-.72-1.89-1.44-2.82-2.04A12.38 12.38 0 0 0 21.02 36H8a8 8 0 0 1-8-8V10Z" fill="#000" fill-opacity=".8"/><mask id="eyesShade01-a" style="mask-type:alpha" maskUnits="userSpaceOnUse" x="0" y="2" width="104" height="42"><path d="M0 10a8 8 0 0 1 8-8h88a8 8 0 0 1 8 8v18a8 8 0 0 1-8 8H82.98c-3.27.17-5.48 1.14-6.98 2.35l-1.48 1.24c-2.47 2.12-5.15 4.4-8.24 4.4H38.67c-3.14 0-5.94-2.12-8.62-4.16-.95-.72-1.89-1.44-2.82-2.04A12.38 12.38 0 0 0 21.02 36H8a8 8 0 0 1-8-8V10Z" fill="#000" fill-opacity=".8"/></mask><g mask="url(#eyesShade01-a)"><path d="M12 19a5 5 0 0 1 5-5h70a5 5 0 0 1 5 5v2a5 5 0 0 1-5 5H74.98c-3.27.17-5.48 1.14-6.98 2.35l-1.48 1.24c-2 1.72-4.14 3.54-6.52 4.18V34H46.67c-3.14 0-5.94-2.13-8.62-4.17-.95-.72-1.89-1.44-2.82-2.04A12.38 12.38 0 0 0 29.02 26H17a5 5 0 0 1-5-5v-2Z" fill="#FF3D3D"/><path d="M12 44 32-2h-4L8 44h4ZM50-2H39L19 44h11L50-2Z" fill="#fff" fill-opacity=".2"/></g></g></g></svg>