<svg xmlns="http://www.w3.org/2000/svg" viewBox="0 0 180 180" fill="none" shape-rendering="auto"><metadata xmlns:rdf="http://www.w3.org/1999/02/22-rdf-syntax-ns#" xmlns:xsi="http://www.w3.org/2001/XMLSchema-instance" xmlns:dc="http://purl.org/dc/elements/1.1/" xmlns:dcterms="http://purl.org/dc/terms/"><rdf:RDF><rdf:Description><dc:title>Bottts</dc:title><dc:creator>Pablo Stanley</dc:creator><dc:source xsi:type="dcterms:URI">https://bottts.com/</dc:source><dcterms:license xsi:type="dcterms:URI">https://bottts.com/</dcterms:license><dc:rights>Remix of „Bottts” (https://bottts.com/) by „Pablo Stanley”, licensed under „Free for personal and commercial use” (https://bottts.com/)</dc:rights></rdf:Description></rdf:RDF></metadata><mask id="viewboxMask"><rect width="180" height="180" rx="0" ry="0" x="0" y="0" fill="#fff" /></mask><g mask="url(#viewboxMask)"><g transform="translate(0 66)"><mask id="sidesAntenna02-a" style="mask-type:alpha" maskUnits="userSpaceOnUse" x="10" y="9" width="160" height="51"><path d="M160 9h2v19h1.6c2.24 0 3.36 0 4.22.44a4 4 0 0 1 1.74 1.74c.44.86.44 1.98.44 4.22v19.2c0 2.24 0 3.36-.44 4.22a4 4 0 0 1-1.74 1.74c-.86.44-1.98.44-4.22.44h-23.2c-2.24 0-3.36 0-4.22-.44a4 4 0 0 1-1.74-1.74c-.44-.86-.44-1.98-.44-4.22V34.4c0-2.24 0-3.36.44-4.22a4 4 0 0 1 1.74-1.74c.86-.44 1.98-.44 4.22-.44H160V9ZM10 34.4c0-2.24 0-3.36.44-4.22a4 4 0 0 1 1.74-1.74c.86-.44 1.98-.44 4.22-.44h23.2c2.24 0 3.36 0 4.22.44a4 4 0 0 1 1.74 1.74c.44.86.44 1.98.44 4.22v19.2c0 2.24 0 3.36-.44 4.22a4 4 0 0 1-1.74 1.74c-.86.44-1.98.44-4.22.44H16.4c-2.24 0-3.36 0-4.22-.44a4 4 0 0 1-1.74-1.74C10 56.96 10 55.84 10 53.6V34.4Z" fill="#0076DE"/></mask><g mask="url(#sidesAntenna02-a)"><path d="M0 0h180v76H0V0Z" fill="#e53935"/><path d="M0 0h180v76H0V0Z" fill="#fff" fill-opacity=".3"/><path fill="#000" fill-opacity=".1" d="M0 38h180v38H0z"/></g><path fill="#fff" fill-opacity=".4" d="M160 8h2v20h-2z"/><circle cx="161" cy="5" r="4" fill="#E1E6E8"/><circle cx="162" cy="4" r="2" fill="#fff"/></g><g transform="translate(41)"><mask id="topRadar-a" style="mask-type:alpha" maskUnits="userSpaceOnUse" x="37" y="0" width="36" height="53"><path d="M43.8 28.4A20 20 0 0 1 43.8.1l13.43 13.45 6.46-6.46a4 4 0 1 1 1.41 1.4l-6.45 6.46L72.08 28.4a20 20 0 0 1-20.14 4.94V52.1h-4V31.58a20.02 20.02 0 0 1-4.14-3.18Z" fill="#E1E6E8"/></mask><g mask="url(#topRadar-a)"><path d="M0 0h100v52H0V0Z" fill="#90A4AE"/><path d="M0 0h100v52H0V0Z" fill="#fff" fill-opacity=".3"/><path fill-rule="evenodd" clip-rule="evenodd" d="M43.8.11A20 20 0 1 0 72.08 28.4" fill="#fff" fill-opacity=".2"/><circle cx="67.13" cy="7.41" r="5.66" transform="rotate(45 67.13 7.4)" fill="#fff" fill-opacity=".8"/></g></g><g transform="translate(25 44)"><mask id="faceRound01-a" style="mask-type:luminance" maskUnits="userSpaceOnUse" x="0" y="0" width="130" height="120"><path fill-rule="evenodd" clip-rule="evenodd" d="M66 0c58.35 0 64 40.69 64 78 0 33.31-25.47 42-64 42-37.46 0-66-8.69-66-42C0 40.69 7.65 0 66 0Z" fill="#fff"/></mask><g mask="url(#faceRound01-a)"><path d="M-4-2h138v124H-4V-2Z" fill="#e53935"/><g transform="translate(-1 -1)"></g></g></g><g transform="translate(52 124)"><rect x="16" y="8" width="44" height="4" rx="2" fill="#000" fill-opacity=".8"/></g><g transform="translate(38 76)"><path d="m18 19 12-2M20 31c0-3.31 2.9-6 7-6 3.1 0 6 2.69 6 6M86 20l-12-3M84 31c0-3.31-2.9-6-6-6-4.1 0-7 2.69-7 6" stroke="#000" stroke-width="4" stroke-linecap="round" stroke-linejoin="round"/></g></g></svg>